<svg xmlns="http://www.w3.org/2000/svg" xmlns:xlink="http://www.w3.org/1999/xlink" width="559" zoomAndPan="magnify" viewBox="0 0 419.25 297.749993" height="397" preserveAspectRatio="xMidYMid meet" version="1.0"><defs><g/><clipPath id="6e7aabeeca"><path d="M 0.425781 12 L 152 12 L 152 100 L 0.425781 100 Z M 0.425781 12 " clip-rule="nonzero"/></clipPath><clipPath id="bad1ed06a0"><rect x="0" width="152" y="0" height="88"/></clipPath><clipPath id="a2680fc9c1"><path d="M 274.003906 5.273438 L 359.066406 5.273438 L 359.066406 90.335938 L 274.003906 90.335938 Z M 274.003906 5.273438 " clip-rule="nonzero"/></clipPath><clipPath id="666a337a67"><path d="M 316.535156 5.273438 C 293.046875 5.273438 274.003906 24.316406 274.003906 47.804688 C 274.003906 71.292969 293.046875 90.335938 316.535156 90.335938 C 340.027344 90.335938 359.066406 71.292969 359.066406 47.804688 C 359.066406 24.316406 340.027344 5.273438 316.535156 5.273438 Z M 316.535156 5.273438 " clip-rule="nonzero"/></clipPath><clipPath id="52c4dca99d"><path d="M 0.00390625 0.273438 L 85.066406 0.273438 L 85.066406 85.335938 L 0.00390625 85.335938 Z M 0.00390625 0.273438 " clip-rule="nonzero"/></clipPath><clipPath id="8d14dea4e2"><path d="M 42.535156 0.273438 C 19.046875 0.273438 0.00390625 19.316406 0.00390625 42.804688 C 0.00390625 66.292969 19.046875 85.335938 42.535156 85.335938 C 66.027344 85.335938 85.066406 66.292969 85.066406 42.804688 C 85.066406 19.316406 66.027344 0.273438 42.535156 0.273438 Z M 42.535156 0.273438 " clip-rule="nonzero"/></clipPath><clipPath id="29abf02c9b"><rect x="0" width="86" y="0" height="86"/></clipPath><clipPath id="e33c4e230d"><path d="M 274 43 L 324 43 L 324 90 L 274 90 Z M 274 43 " clip-rule="nonzero"/></clipPath><clipPath id="976641ac0e"><path d="M 301.027344 112.105469 L 252.53125 67.378906 L 274.550781 43.503906 L 323.050781 88.230469 Z M 301.027344 112.105469 " clip-rule="nonzero"/></clipPath><clipPath id="1ded9cc9ca"><path d="M 276.785156 89.742188 L 274.558594 43.507812 L 323.050781 88.230469 Z M 276.785156 89.742188 " clip-rule="nonzero"/></clipPath><clipPath id="bbdc184116"><path d="M 0.496094 0.34375 L 49.128906 0.34375 L 49.128906 46.820312 L 0.496094 46.820312 Z M 0.496094 0.34375 " clip-rule="nonzero"/></clipPath><clipPath id="74f939d8f4"><path d="M 27.027344 69.105469 L -21.46875 24.378906 L 0.550781 0.503906 L 49.050781 45.230469 Z M 27.027344 69.105469 " clip-rule="nonzero"/></clipPath><clipPath id="576d198ee0"><path d="M 2.785156 46.742188 L 0.558594 0.507812 L 49.050781 45.230469 Z M 2.785156 46.742188 " clip-rule="nonzero"/></clipPath><clipPath id="2f254136f4"><rect x="0" width="50" y="0" height="47"/></clipPath><clipPath id="5d0bd053e0"><path d="M 289 0.699219 L 344 0.699219 L 344 98 L 289 98 Z M 289 0.699219 " clip-rule="nonzero"/></clipPath><clipPath id="6a47a03f5b"><rect x="0" width="55" y="0" height="98"/></clipPath><clipPath id="6d03f76021"><rect x="0" width="116" y="0" height="87"/></clipPath><clipPath id="827c3d73e0"><rect x="0" width="155" y="0" height="17"/></clipPath><clipPath id="c3caa8424b"><rect x="0" width="360" y="0" height="113"/></clipPath></defs><g transform="matrix(1, 0, 0, 1, 30, 90)"><g clip-path="url(#c3caa8424b)"><g clip-path="url(#6e7aabeeca)"><g transform="matrix(1, 0, 0, 1, 0.000000000000003553, 12)"><g clip-path="url(#bad1ed06a0)"><g fill="#65af44" fill-opacity="1"><g transform="translate(0.48634, 64.518436)"><g><path d="M 32.734375 -29.75 C 31.941406 -31.195312 30.8125 -32.300781 29.34375 -33.0625 C 27.882812 -33.832031 26.160156 -34.21875 24.171875 -34.21875 C 20.742188 -34.21875 17.992188 -33.085938 15.921875 -30.828125 C 13.859375 -28.578125 12.828125 -25.570312 12.828125 -21.8125 C 12.828125 -17.8125 13.910156 -14.679688 16.078125 -12.421875 C 18.253906 -10.171875 21.242188 -9.046875 25.046875 -9.046875 C 27.648438 -9.046875 29.847656 -9.707031 31.640625 -11.03125 C 33.441406 -12.351562 34.753906 -14.253906 35.578125 -16.734375 L 22.125 -16.734375 L 22.125 -24.546875 L 45.1875 -24.546875 L 45.1875 -14.6875 C 44.40625 -12.039062 43.070312 -9.582031 41.1875 -7.3125 C 39.3125 -5.039062 36.925781 -3.203125 34.03125 -1.796875 C 31.132812 -0.390625 27.867188 0.3125 24.234375 0.3125 C 19.941406 0.3125 16.109375 -0.625 12.734375 -2.5 C 9.367188 -4.382812 6.742188 -7 4.859375 -10.34375 C 2.984375 -13.695312 2.046875 -17.519531 2.046875 -21.8125 C 2.046875 -26.113281 2.984375 -29.945312 4.859375 -33.3125 C 6.742188 -36.6875 9.359375 -39.3125 12.703125 -41.1875 C 16.054688 -43.070312 19.878906 -44.015625 24.171875 -44.015625 C 29.378906 -44.015625 33.769531 -42.753906 37.34375 -40.234375 C 40.914062 -37.710938 43.28125 -34.21875 44.4375 -29.75 Z M 32.734375 -29.75 "/></g></g></g><g fill="#65af44" fill-opacity="1"><g transform="translate(47.716695, 64.518436)"><g><path d="M 9.171875 -38.1875 C 7.316406 -38.1875 5.796875 -38.734375 4.609375 -39.828125 C 3.429688 -40.921875 2.84375 -42.273438 2.84375 -43.890625 C 2.84375 -45.535156 3.429688 -46.90625 4.609375 -48 C 5.796875 -49.101562 7.316406 -49.65625 9.171875 -49.65625 C 10.992188 -49.65625 12.492188 -49.101562 13.671875 -48 C 14.847656 -46.90625 15.4375 -45.535156 15.4375 -43.890625 C 15.4375 -42.273438 14.847656 -40.921875 13.671875 -39.828125 C 12.492188 -38.734375 10.992188 -38.1875 9.171875 -38.1875 Z M 14.4375 -34.59375 L 14.4375 0 L 3.84375 0 L 3.84375 -34.59375 Z M 14.4375 -34.59375 "/></g></g></g><g fill="#65af44" fill-opacity="1"><g transform="translate(66.001406, 64.518436)"><g><path d="M 16.984375 -35.078125 C 19.421875 -35.078125 21.554688 -34.582031 23.390625 -33.59375 C 25.234375 -32.601562 26.648438 -31.300781 27.640625 -29.6875 L 27.640625 -34.59375 L 38.25 -34.59375 L 38.25 -0.0625 C 38.25 3.113281 37.617188 5.992188 36.359375 8.578125 C 35.097656 11.160156 33.175781 13.21875 30.59375 14.75 C 28.007812 16.28125 24.796875 17.046875 20.953125 17.046875 C 15.828125 17.046875 11.671875 15.835938 8.484375 13.421875 C 5.304688 11.003906 3.488281 7.726562 3.03125 3.59375 L 13.515625 3.59375 C 13.847656 4.914062 14.632812 5.957031 15.875 6.71875 C 17.113281 7.488281 18.640625 7.875 20.453125 7.875 C 22.640625 7.875 24.382812 7.242188 25.6875 5.984375 C 26.988281 4.722656 27.640625 2.707031 27.640625 -0.0625 L 27.640625 -4.953125 C 26.609375 -3.347656 25.179688 -2.035156 23.359375 -1.015625 C 21.546875 -0.00390625 19.421875 0.5 16.984375 0.5 C 14.128906 0.5 11.546875 -0.234375 9.234375 -1.703125 C 6.921875 -3.171875 5.09375 -5.257812 3.75 -7.96875 C 2.40625 -10.675781 1.734375 -13.804688 1.734375 -17.359375 C 1.734375 -20.910156 2.40625 -24.03125 3.75 -26.71875 C 5.09375 -29.40625 6.921875 -31.46875 9.234375 -32.90625 C 11.546875 -34.351562 14.128906 -35.078125 16.984375 -35.078125 Z M 27.640625 -17.296875 C 27.640625 -19.941406 26.90625 -22.023438 25.4375 -23.546875 C 23.976562 -25.078125 22.191406 -25.84375 20.078125 -25.84375 C 17.972656 -25.84375 16.1875 -25.085938 14.71875 -23.578125 C 13.25 -22.078125 12.515625 -20.003906 12.515625 -17.359375 C 12.515625 -14.710938 13.25 -12.613281 14.71875 -11.0625 C 16.1875 -9.507812 17.972656 -8.734375 20.078125 -8.734375 C 22.191406 -8.734375 23.976562 -9.5 25.4375 -11.03125 C 26.90625 -12.5625 27.640625 -14.648438 27.640625 -17.296875 Z M 27.640625 -17.296875 "/></g></g></g><g fill="#65af44" fill-opacity="1"><g transform="translate(108.087238, 64.518436)"><g><path d="M 1.734375 -17.359375 C 1.734375 -20.910156 2.40625 -24.03125 3.75 -26.71875 C 5.09375 -29.40625 6.921875 -31.46875 9.234375 -32.90625 C 11.546875 -34.351562 14.128906 -35.078125 16.984375 -35.078125 C 19.421875 -35.078125 21.554688 -34.582031 23.390625 -33.59375 C 25.234375 -32.601562 26.648438 -31.300781 27.640625 -29.6875 L 27.640625 -34.59375 L 38.25 -34.59375 L 38.25 0 L 27.640625 0 L 27.640625 -4.890625 C 26.609375 -3.285156 25.171875 -1.984375 23.328125 -0.984375 C 21.492188 0.00390625 19.359375 0.5 16.921875 0.5 C 14.109375 0.5 11.546875 -0.234375 9.234375 -1.703125 C 6.921875 -3.171875 5.09375 -5.257812 3.75 -7.96875 C 2.40625 -10.675781 1.734375 -13.804688 1.734375 -17.359375 Z M 27.640625 -17.296875 C 27.640625 -19.941406 26.90625 -22.023438 25.4375 -23.546875 C 23.976562 -25.078125 22.191406 -25.84375 20.078125 -25.84375 C 17.972656 -25.84375 16.1875 -25.085938 14.71875 -23.578125 C 13.25 -22.078125 12.515625 -20.003906 12.515625 -17.359375 C 12.515625 -14.710938 13.25 -12.613281 14.71875 -11.0625 C 16.1875 -9.507812 17.972656 -8.734375 20.078125 -8.734375 C 22.191406 -8.734375 23.976562 -9.5 25.4375 -11.03125 C 26.90625 -12.5625 27.640625 -14.648438 27.640625 -17.296875 Z M 27.640625 -17.296875 "/></g></g></g></g></g></g><g clip-path="url(#a2680fc9c1)"><g clip-path="url(#666a337a67)"><g transform="matrix(1, 0, 0, 1, 274, 5)"><g clip-path="url(#29abf02c9b)"><g clip-path="url(#52c4dca99d)"><g clip-path="url(#8d14dea4e2)"><path fill="#65af44" d="M 0.00390625 0.273438 L 85.066406 0.273438 L 85.066406 85.335938 L 0.00390625 85.335938 Z M 0.00390625 0.273438 " fill-opacity="1" fill-rule="nonzero"/></g></g></g></g></g></g><path stroke-linecap="butt" transform="matrix(0, 0.682873, -0.682873, 0, 277.89539, 47.028293)" fill="none" stroke-linejoin="miter" d="M -0.00139017 2.998703 L 63.150884 2.998703 " stroke="#65af44" stroke-width="6" stroke-opacity="1" stroke-miterlimit="4"/><path stroke-linecap="butt" transform="matrix(-0.682873, 0, 0, -0.682873, 317.575607, 90.437424)" fill="none" stroke-linejoin="miter" d="M 0.00203272 2.997334 L 61.340967 2.997334 " stroke="#65af44" stroke-width="6" stroke-opacity="1" stroke-miterlimit="4"/><g clip-path="url(#e33c4e230d)"><g clip-path="url(#976641ac0e)"><g clip-path="url(#1ded9cc9ca)"><g transform="matrix(1, 0, 0, 1, 274, 43)"><g clip-path="url(#2f254136f4)"><g clip-path="url(#bbdc184116)"><g clip-path="url(#74f939d8f4)"><g clip-path="url(#576d198ee0)"><path fill="#65af44" d="M 27.027344 69.105469 L -21.46875 24.378906 L 0.550781 0.503906 L 49.050781 45.230469 Z M 27.027344 69.105469 " fill-opacity="1" fill-rule="nonzero"/></g></g></g></g></g></g></g></g><g clip-path="url(#5d0bd053e0)"><g transform="matrix(1, 0, 0, 1, 289, -0.000000000000014211)"><g clip-path="url(#6a47a03f5b)"><g fill="#ffffff" fill-opacity="1"><g transform="translate(0.837524, 72.844784)"><g><path d="M 39.921875 -34.1875 C 38.679688 -36.582031 36.957031 -38.390625 34.75 -39.609375 C 32.539062 -40.835938 29.984375 -41.453125 27.078125 -41.453125 C 23.898438 -41.453125 21.066406 -40.738281 18.578125 -39.3125 C 16.097656 -37.882812 14.15625 -35.859375 12.75 -33.234375 C 11.34375 -30.609375 10.640625 -27.566406 10.640625 -24.109375 C 10.640625 -20.648438 11.34375 -17.597656 12.75 -14.953125 C 14.15625 -12.304688 16.097656 -10.269531 18.578125 -8.84375 C 21.066406 -7.414062 23.898438 -6.703125 27.078125 -6.703125 C 31.359375 -6.703125 34.832031 -7.898438 37.5 -10.296875 C 40.175781 -12.691406 41.8125 -15.9375 42.40625 -20.03125 L 24.390625 -20.03125 L 24.390625 -26.3125 L 50.84375 -26.3125 L 50.84375 -20.171875 C 50.332031 -16.441406 49.003906 -13.007812 46.859375 -9.875 C 44.722656 -6.75 41.9375 -4.25 38.5 -2.375 C 35.070312 -0.507812 31.265625 0.421875 27.078125 0.421875 C 22.566406 0.421875 18.445312 -0.625 14.71875 -2.71875 C 10.988281 -4.820312 8.03125 -7.738281 5.84375 -11.46875 C 3.65625 -15.195312 2.5625 -19.410156 2.5625 -24.109375 C 2.5625 -28.804688 3.65625 -33.019531 5.84375 -36.75 C 8.03125 -40.476562 11 -43.390625 14.75 -45.484375 C 18.5 -47.578125 22.609375 -48.625 27.078125 -48.625 C 32.191406 -48.625 36.738281 -47.367188 40.71875 -44.859375 C 44.707031 -42.347656 47.597656 -38.789062 49.390625 -34.1875 Z M 39.921875 -34.1875 "/></g></g></g></g></g></g><g transform="matrix(1, 0, 0, 1, 156, 12)"><g clip-path="url(#6d03f76021)"><g fill="#4a6e36" fill-opacity="1"><g transform="translate(0.162112, 64.351778)"><g><path d="M 14.203125 -34.421875 L 14.203125 -25.78125 L 28.15625 -25.78125 L 28.15625 -17.734375 L 14.203125 -17.734375 L 14.203125 -8.34375 L 29.984375 -8.34375 L 29.984375 0 L 3.78125 0 L 3.78125 -42.78125 L 29.984375 -42.78125 L 29.984375 -34.421875 Z M 14.203125 -34.421875 "/></g></g></g><g fill="#4a6e36" fill-opacity="1"><g transform="translate(33.121144, 64.351778)"><g><path d="M 1.703125 -17.0625 C 1.703125 -20.550781 2.363281 -23.613281 3.6875 -26.25 C 5.007812 -28.894531 6.804688 -30.925781 9.078125 -32.34375 C 11.347656 -33.769531 13.890625 -34.484375 16.703125 -34.484375 C 18.929688 -34.484375 20.96875 -34.015625 22.8125 -33.078125 C 24.664062 -32.148438 26.117188 -30.894531 27.171875 -29.3125 L 27.171875 -45.09375 L 37.59375 -45.09375 L 37.59375 0 L 27.171875 0 L 27.171875 -4.875 C 26.203125 -3.25 24.8125 -1.945312 23 -0.96875 C 21.195312 0 19.097656 0.484375 16.703125 0.484375 C 13.890625 0.484375 11.347656 -0.234375 9.078125 -1.671875 C 6.804688 -3.117188 5.007812 -5.171875 3.6875 -7.828125 C 2.363281 -10.492188 1.703125 -13.570312 1.703125 -17.0625 Z M 27.171875 -17 C 27.171875 -19.601562 26.445312 -21.65625 25 -23.15625 C 23.5625 -24.65625 21.8125 -25.40625 19.75 -25.40625 C 17.675781 -25.40625 15.914062 -24.664062 14.46875 -23.1875 C 13.03125 -21.707031 12.3125 -19.664062 12.3125 -17.0625 C 12.3125 -14.457031 13.03125 -12.394531 14.46875 -10.875 C 15.914062 -9.351562 17.675781 -8.59375 19.75 -8.59375 C 21.8125 -8.59375 23.5625 -9.34375 25 -10.84375 C 26.445312 -12.34375 27.171875 -14.394531 27.171875 -17 Z M 27.171875 -17 "/></g></g></g><g fill="#4a6e36" fill-opacity="1"><g transform="translate(74.487472, 64.351778)"><g><path d="M 37.359375 -34 L 37.359375 0 L 26.9375 0 L 26.9375 -4.625 C 25.875 -3.125 24.4375 -1.914062 22.625 -1 C 20.820312 -0.09375 18.828125 0.359375 16.640625 0.359375 C 14.035156 0.359375 11.738281 -0.21875 9.75 -1.375 C 7.757812 -2.53125 6.210938 -4.203125 5.109375 -6.390625 C 4.015625 -8.585938 3.46875 -11.171875 3.46875 -14.140625 L 3.46875 -34 L 13.828125 -34 L 13.828125 -15.53125 C 13.828125 -13.257812 14.414062 -11.492188 15.59375 -10.234375 C 16.769531 -8.972656 18.359375 -8.34375 20.359375 -8.34375 C 22.390625 -8.34375 23.992188 -8.972656 25.171875 -10.234375 C 26.347656 -11.492188 26.9375 -13.257812 26.9375 -15.53125 L 26.9375 -34 Z M 37.359375 -34 "/></g></g></g></g></g><g transform="matrix(1, 0, 0, 1, 107, 75)"><g clip-path="url(#827c3d73e0)"><g fill="#000000" fill-opacity="1"><g transform="translate(1.115292, 12.478188)"><g><path d="M 0.515625 -4.140625 C 0.515625 -4.941406 0.691406 -5.660156 1.046875 -6.296875 C 1.410156 -6.941406 1.90625 -7.445312 2.53125 -7.8125 C 3.164062 -8.175781 3.863281 -8.359375 4.625 -8.359375 C 5.53125 -8.359375 6.316406 -8.140625 6.984375 -7.703125 C 7.660156 -7.273438 8.148438 -6.660156 8.453125 -5.859375 L 7.171875 -5.859375 C 6.941406 -6.359375 6.609375 -6.742188 6.171875 -7.015625 C 5.742188 -7.285156 5.226562 -7.421875 4.625 -7.421875 C 4.050781 -7.421875 3.535156 -7.285156 3.078125 -7.015625 C 2.617188 -6.742188 2.257812 -6.359375 2 -5.859375 C 1.738281 -5.367188 1.609375 -4.796875 1.609375 -4.140625 C 1.609375 -3.484375 1.738281 -2.90625 2 -2.40625 C 2.257812 -1.914062 2.617188 -1.535156 3.078125 -1.265625 C 3.535156 -0.992188 4.050781 -0.859375 4.625 -0.859375 C 5.226562 -0.859375 5.742188 -0.988281 6.171875 -1.25 C 6.609375 -1.519531 6.941406 -1.90625 7.171875 -2.40625 L 8.453125 -2.40625 C 8.148438 -1.613281 7.660156 -1 6.984375 -0.5625 C 6.316406 -0.132812 5.53125 0.078125 4.625 0.078125 C 3.863281 0.078125 3.164062 -0.0976562 2.53125 -0.453125 C 1.90625 -0.816406 1.410156 -1.316406 1.046875 -1.953125 C 0.691406 -2.597656 0.515625 -3.328125 0.515625 -4.140625 Z M 0.515625 -4.140625 "/></g></g></g><g fill="#000000" fill-opacity="1"><g transform="translate(10.261595, 12.478188)"><g><path d="M 6.671875 -6.484375 L 6.671875 0 L 5.59375 0 L 5.59375 -0.953125 C 5.382812 -0.628906 5.097656 -0.375 4.734375 -0.1875 C 4.367188 0 3.960938 0.09375 3.515625 0.09375 C 3.015625 0.09375 2.5625 -0.0078125 2.15625 -0.21875 C 1.75 -0.425781 1.429688 -0.738281 1.203125 -1.15625 C 0.972656 -1.570312 0.859375 -2.082031 0.859375 -2.6875 L 0.859375 -6.484375 L 1.921875 -6.484375 L 1.921875 -2.828125 C 1.921875 -2.191406 2.082031 -1.703125 2.40625 -1.359375 C 2.726562 -1.015625 3.171875 -0.84375 3.734375 -0.84375 C 4.304688 -0.84375 4.757812 -1.019531 5.09375 -1.375 C 5.425781 -1.726562 5.59375 -2.242188 5.59375 -2.921875 L 5.59375 -6.484375 Z M 6.671875 -6.484375 "/></g></g></g><g fill="#000000" fill-opacity="1"><g transform="translate(17.844024, 12.478188)"><g><path d="M 1.984375 -5.4375 C 2.179688 -5.8125 2.453125 -6.097656 2.796875 -6.296875 C 3.148438 -6.503906 3.582031 -6.609375 4.09375 -6.609375 L 4.09375 -5.5 L 3.796875 -5.5 C 2.585938 -5.5 1.984375 -4.84375 1.984375 -3.53125 L 1.984375 0 L 0.90625 0 L 0.90625 -6.484375 L 1.984375 -6.484375 Z M 1.984375 -5.4375 "/></g></g></g><g fill="#000000" fill-opacity="1"><g transform="translate(22.263155, 12.478188)"><g><path d="M 3.203125 0.109375 C 2.710938 0.109375 2.269531 0.0234375 1.875 -0.140625 C 1.476562 -0.316406 1.164062 -0.554688 0.9375 -0.859375 C 0.707031 -1.160156 0.582031 -1.507812 0.5625 -1.90625 L 1.671875 -1.90625 C 1.703125 -1.582031 1.851562 -1.316406 2.125 -1.109375 C 2.394531 -0.910156 2.753906 -0.8125 3.203125 -0.8125 C 3.609375 -0.8125 3.929688 -0.898438 4.171875 -1.078125 C 4.410156 -1.253906 4.53125 -1.484375 4.53125 -1.765625 C 4.53125 -2.046875 4.398438 -2.253906 4.140625 -2.390625 C 3.890625 -2.535156 3.5 -2.675781 2.96875 -2.8125 C 2.488281 -2.9375 2.097656 -3.0625 1.796875 -3.1875 C 1.492188 -3.320312 1.234375 -3.515625 1.015625 -3.765625 C 0.796875 -4.023438 0.6875 -4.363281 0.6875 -4.78125 C 0.6875 -5.113281 0.785156 -5.414062 0.984375 -5.6875 C 1.179688 -5.96875 1.460938 -6.1875 1.828125 -6.34375 C 2.191406 -6.507812 2.601562 -6.59375 3.0625 -6.59375 C 3.78125 -6.59375 4.359375 -6.410156 4.796875 -6.046875 C 5.242188 -5.679688 5.484375 -5.1875 5.515625 -4.5625 L 4.4375 -4.5625 C 4.414062 -4.894531 4.28125 -5.164062 4.03125 -5.375 C 3.78125 -5.582031 3.445312 -5.6875 3.03125 -5.6875 C 2.644531 -5.6875 2.335938 -5.601562 2.109375 -5.4375 C 1.878906 -5.269531 1.765625 -5.050781 1.765625 -4.78125 C 1.765625 -4.570312 1.832031 -4.394531 1.96875 -4.25 C 2.101562 -4.113281 2.273438 -4.003906 2.484375 -3.921875 C 2.703125 -3.835938 2.992188 -3.742188 3.359375 -3.640625 C 3.828125 -3.515625 4.207031 -3.390625 4.5 -3.265625 C 4.789062 -3.148438 5.039062 -2.96875 5.25 -2.71875 C 5.457031 -2.476562 5.566406 -2.160156 5.578125 -1.765625 C 5.578125 -1.410156 5.476562 -1.085938 5.28125 -0.796875 C 5.082031 -0.515625 4.800781 -0.289062 4.4375 -0.125 C 4.082031 0.03125 3.671875 0.109375 3.203125 0.109375 Z M 3.203125 0.109375 "/></g></g></g><g fill="#000000" fill-opacity="1"><g transform="translate(28.447571, 12.478188)"><g><path d="M 3.75 0.109375 C 3.132812 0.109375 2.578125 -0.0234375 2.078125 -0.296875 C 1.585938 -0.578125 1.203125 -0.972656 0.921875 -1.484375 C 0.648438 -1.992188 0.515625 -2.582031 0.515625 -3.25 C 0.515625 -3.914062 0.65625 -4.503906 0.9375 -5.015625 C 1.226562 -5.523438 1.617188 -5.914062 2.109375 -6.1875 C 2.609375 -6.457031 3.171875 -6.59375 3.796875 -6.59375 C 4.410156 -6.59375 4.960938 -6.457031 5.453125 -6.1875 C 5.953125 -5.914062 6.347656 -5.523438 6.640625 -5.015625 C 6.929688 -4.515625 7.078125 -3.925781 7.078125 -3.25 C 7.078125 -2.582031 6.925781 -1.992188 6.625 -1.484375 C 6.332031 -0.972656 5.929688 -0.578125 5.421875 -0.296875 C 4.921875 -0.0234375 4.363281 0.109375 3.75 0.109375 Z M 3.75 -0.84375 C 4.132812 -0.84375 4.492188 -0.929688 4.828125 -1.109375 C 5.171875 -1.296875 5.445312 -1.566406 5.65625 -1.921875 C 5.863281 -2.285156 5.96875 -2.726562 5.96875 -3.25 C 5.96875 -3.769531 5.863281 -4.210938 5.65625 -4.578125 C 5.457031 -4.941406 5.191406 -5.210938 4.859375 -5.390625 C 4.523438 -5.566406 4.164062 -5.65625 3.78125 -5.65625 C 3.382812 -5.65625 3.019531 -5.566406 2.6875 -5.390625 C 2.363281 -5.210938 2.101562 -4.941406 1.90625 -4.578125 C 1.707031 -4.210938 1.609375 -3.769531 1.609375 -3.25 C 1.609375 -2.726562 1.703125 -2.285156 1.890625 -1.921875 C 2.085938 -1.554688 2.347656 -1.285156 2.671875 -1.109375 C 2.992188 -0.929688 3.351562 -0.84375 3.75 -0.84375 Z M 3.75 -0.84375 "/></g></g></g><g fill="#000000" fill-opacity="1"><g transform="translate(36.029999, 12.478188)"><g><path d="M 3.203125 0.109375 C 2.710938 0.109375 2.269531 0.0234375 1.875 -0.140625 C 1.476562 -0.316406 1.164062 -0.554688 0.9375 -0.859375 C 0.707031 -1.160156 0.582031 -1.507812 0.5625 -1.90625 L 1.671875 -1.90625 C 1.703125 -1.582031 1.851562 -1.316406 2.125 -1.109375 C 2.394531 -0.910156 2.753906 -0.8125 3.203125 -0.8125 C 3.609375 -0.8125 3.929688 -0.898438 4.171875 -1.078125 C 4.410156 -1.253906 4.53125 -1.484375 4.53125 -1.765625 C 4.53125 -2.046875 4.398438 -2.253906 4.140625 -2.390625 C 3.890625 -2.535156 3.5 -2.675781 2.96875 -2.8125 C 2.488281 -2.9375 2.097656 -3.0625 1.796875 -3.1875 C 1.492188 -3.320312 1.234375 -3.515625 1.015625 -3.765625 C 0.796875 -4.023438 0.6875 -4.363281 0.6875 -4.78125 C 0.6875 -5.113281 0.785156 -5.414062 0.984375 -5.6875 C 1.179688 -5.96875 1.460938 -6.1875 1.828125 -6.34375 C 2.191406 -6.507812 2.601562 -6.59375 3.0625 -6.59375 C 3.78125 -6.59375 4.359375 -6.410156 4.796875 -6.046875 C 5.242188 -5.679688 5.484375 -5.1875 5.515625 -4.5625 L 4.4375 -4.5625 C 4.414062 -4.894531 4.28125 -5.164062 4.03125 -5.375 C 3.78125 -5.582031 3.445312 -5.6875 3.03125 -5.6875 C 2.644531 -5.6875 2.335938 -5.601562 2.109375 -5.4375 C 1.878906 -5.269531 1.765625 -5.050781 1.765625 -4.78125 C 1.765625 -4.570312 1.832031 -4.394531 1.96875 -4.25 C 2.101562 -4.113281 2.273438 -4.003906 2.484375 -3.921875 C 2.703125 -3.835938 2.992188 -3.742188 3.359375 -3.640625 C 3.828125 -3.515625 4.207031 -3.390625 4.5 -3.265625 C 4.789062 -3.148438 5.039062 -2.96875 5.25 -2.71875 C 5.457031 -2.476562 5.566406 -2.160156 5.578125 -1.765625 C 5.578125 -1.410156 5.476562 -1.085938 5.28125 -0.796875 C 5.082031 -0.515625 4.800781 -0.289062 4.4375 -0.125 C 4.082031 0.03125 3.671875 0.109375 3.203125 0.109375 Z M 3.203125 0.109375 "/></g></g></g><g fill="#000000" fill-opacity="1"><g transform="translate(42.214415, 12.478188)"><g/></g></g><g fill="#000000" fill-opacity="1"><g transform="translate(45.377712, 12.478188)"><g><path d="M 6.4375 -5.84375 C 6.4375 -5.15625 6.195312 -4.582031 5.71875 -4.125 C 5.25 -3.675781 4.535156 -3.453125 3.578125 -3.453125 L 1.984375 -3.453125 L 1.984375 0 L 0.90625 0 L 0.90625 -8.25 L 3.578125 -8.25 C 4.503906 -8.25 5.210938 -8.023438 5.703125 -7.578125 C 6.191406 -7.128906 6.4375 -6.550781 6.4375 -5.84375 Z M 3.578125 -4.328125 C 4.179688 -4.328125 4.625 -4.457031 4.90625 -4.71875 C 5.1875 -4.976562 5.328125 -5.351562 5.328125 -5.84375 C 5.328125 -6.851562 4.742188 -7.359375 3.578125 -7.359375 L 1.984375 -7.359375 L 1.984375 -4.328125 Z M 3.578125 -4.328125 "/></g></g></g><g fill="#000000" fill-opacity="1"><g transform="translate(52.23744, 12.478188)"><g><path d="M 1.984375 -5.4375 C 2.179688 -5.8125 2.453125 -6.097656 2.796875 -6.296875 C 3.148438 -6.503906 3.582031 -6.609375 4.09375 -6.609375 L 4.09375 -5.5 L 3.796875 -5.5 C 2.585938 -5.5 1.984375 -4.84375 1.984375 -3.53125 L 1.984375 0 L 0.90625 0 L 0.90625 -6.484375 L 1.984375 -6.484375 Z M 1.984375 -5.4375 "/></g></g></g><g fill="#000000" fill-opacity="1"><g transform="translate(56.656571, 12.478188)"><g><path d="M 3.75 0.109375 C 3.132812 0.109375 2.578125 -0.0234375 2.078125 -0.296875 C 1.585938 -0.578125 1.203125 -0.972656 0.921875 -1.484375 C 0.648438 -1.992188 0.515625 -2.582031 0.515625 -3.25 C 0.515625 -3.914062 0.65625 -4.503906 0.9375 -5.015625 C 1.226562 -5.523438 1.617188 -5.914062 2.109375 -6.1875 C 2.609375 -6.457031 3.171875 -6.59375 3.796875 -6.59375 C 4.410156 -6.59375 4.960938 -6.457031 5.453125 -6.1875 C 5.953125 -5.914062 6.347656 -5.523438 6.640625 -5.015625 C 6.929688 -4.515625 7.078125 -3.925781 7.078125 -3.25 C 7.078125 -2.582031 6.925781 -1.992188 6.625 -1.484375 C 6.332031 -0.972656 5.929688 -0.578125 5.421875 -0.296875 C 4.921875 -0.0234375 4.363281 0.109375 3.75 0.109375 Z M 3.75 -0.84375 C 4.132812 -0.84375 4.492188 -0.929688 4.828125 -1.109375 C 5.171875 -1.296875 5.445312 -1.566406 5.65625 -1.921875 C 5.863281 -2.285156 5.96875 -2.726562 5.96875 -3.25 C 5.96875 -3.769531 5.863281 -4.210938 5.65625 -4.578125 C 5.457031 -4.941406 5.191406 -5.210938 4.859375 -5.390625 C 4.523438 -5.566406 4.164062 -5.65625 3.78125 -5.65625 C 3.382812 -5.65625 3.019531 -5.566406 2.6875 -5.390625 C 2.363281 -5.210938 2.101562 -4.941406 1.90625 -4.578125 C 1.707031 -4.210938 1.609375 -3.769531 1.609375 -3.25 C 1.609375 -2.726562 1.703125 -2.285156 1.890625 -1.921875 C 2.085938 -1.554688 2.347656 -1.285156 2.671875 -1.109375 C 2.992188 -0.929688 3.351562 -0.84375 3.75 -0.84375 Z M 3.75 -0.84375 "/></g></g></g><g fill="#000000" fill-opacity="1"><g transform="translate(64.239, 12.478188)"><g><path d="M 3.546875 -5.609375 L 2.1875 -5.609375 L 2.1875 0 L 1.109375 0 L 1.109375 -5.609375 L 0.265625 -5.609375 L 0.265625 -6.484375 L 1.109375 -6.484375 L 1.109375 -6.953125 C 1.109375 -7.679688 1.296875 -8.210938 1.671875 -8.546875 C 2.046875 -8.878906 2.648438 -9.046875 3.484375 -9.046875 L 3.484375 -8.15625 C 3.003906 -8.15625 2.664062 -8.0625 2.46875 -7.875 C 2.28125 -7.6875 2.1875 -7.378906 2.1875 -6.953125 L 2.1875 -6.484375 L 3.546875 -6.484375 Z M 3.546875 -5.609375 "/></g></g></g><g fill="#000000" fill-opacity="1"><g transform="translate(68.13684, 12.478188)"><g><path d="M 1.46875 -7.546875 C 1.257812 -7.546875 1.082031 -7.613281 0.9375 -7.75 C 0.800781 -7.894531 0.734375 -8.070312 0.734375 -8.28125 C 0.734375 -8.488281 0.800781 -8.660156 0.9375 -8.796875 C 1.082031 -8.941406 1.257812 -9.015625 1.46875 -9.015625 C 1.664062 -9.015625 1.832031 -8.941406 1.96875 -8.796875 C 2.101562 -8.660156 2.171875 -8.488281 2.171875 -8.28125 C 2.171875 -8.070312 2.101562 -7.894531 1.96875 -7.75 C 1.832031 -7.613281 1.664062 -7.546875 1.46875 -7.546875 Z M 1.984375 -6.484375 L 1.984375 0 L 0.90625 0 L 0.90625 -6.484375 Z M 1.984375 -6.484375 "/></g></g></g><g fill="#000000" fill-opacity="1"><g transform="translate(71.051339, 12.478188)"><g><path d="M 3.203125 0.109375 C 2.710938 0.109375 2.269531 0.0234375 1.875 -0.140625 C 1.476562 -0.316406 1.164062 -0.554688 0.9375 -0.859375 C 0.707031 -1.160156 0.582031 -1.507812 0.5625 -1.90625 L 1.671875 -1.90625 C 1.703125 -1.582031 1.851562 -1.316406 2.125 -1.109375 C 2.394531 -0.910156 2.753906 -0.8125 3.203125 -0.8125 C 3.609375 -0.8125 3.929688 -0.898438 4.171875 -1.078125 C 4.410156 -1.253906 4.53125 -1.484375 4.53125 -1.765625 C 4.53125 -2.046875 4.398438 -2.253906 4.140625 -2.390625 C 3.890625 -2.535156 3.5 -2.675781 2.96875 -2.8125 C 2.488281 -2.9375 2.097656 -3.0625 1.796875 -3.1875 C 1.492188 -3.320312 1.234375 -3.515625 1.015625 -3.765625 C 0.796875 -4.023438 0.6875 -4.363281 0.6875 -4.78125 C 0.6875 -5.113281 0.785156 -5.414062 0.984375 -5.6875 C 1.179688 -5.96875 1.460938 -6.1875 1.828125 -6.34375 C 2.191406 -6.507812 2.601562 -6.59375 3.0625 -6.59375 C 3.78125 -6.59375 4.359375 -6.410156 4.796875 -6.046875 C 5.242188 -5.679688 5.484375 -5.1875 5.515625 -4.5625 L 4.4375 -4.5625 C 4.414062 -4.894531 4.28125 -5.164062 4.03125 -5.375 C 3.78125 -5.582031 3.445312 -5.6875 3.03125 -5.6875 C 2.644531 -5.6875 2.335938 -5.601562 2.109375 -5.4375 C 1.878906 -5.269531 1.765625 -5.050781 1.765625 -4.78125 C 1.765625 -4.570312 1.832031 -4.394531 1.96875 -4.25 C 2.101562 -4.113281 2.273438 -4.003906 2.484375 -3.921875 C 2.703125 -3.835938 2.992188 -3.742188 3.359375 -3.640625 C 3.828125 -3.515625 4.207031 -3.390625 4.5 -3.265625 C 4.789062 -3.148438 5.039062 -2.96875 5.25 -2.71875 C 5.457031 -2.476562 5.566406 -2.160156 5.578125 -1.765625 C 5.578125 -1.410156 5.476562 -1.085938 5.28125 -0.796875 C 5.082031 -0.515625 4.800781 -0.289062 4.4375 -0.125 C 4.082031 0.03125 3.671875 0.109375 3.203125 0.109375 Z M 3.203125 0.109375 "/></g></g></g><g fill="#000000" fill-opacity="1"><g transform="translate(77.235754, 12.478188)"><g><path d="M 3.203125 0.109375 C 2.710938 0.109375 2.269531 0.0234375 1.875 -0.140625 C 1.476562 -0.316406 1.164062 -0.554688 0.9375 -0.859375 C 0.707031 -1.160156 0.582031 -1.507812 0.5625 -1.90625 L 1.671875 -1.90625 C 1.703125 -1.582031 1.851562 -1.316406 2.125 -1.109375 C 2.394531 -0.910156 2.753906 -0.8125 3.203125 -0.8125 C 3.609375 -0.8125 3.929688 -0.898438 4.171875 -1.078125 C 4.410156 -1.253906 4.53125 -1.484375 4.53125 -1.765625 C 4.53125 -2.046875 4.398438 -2.253906 4.140625 -2.390625 C 3.890625 -2.535156 3.5 -2.675781 2.96875 -2.8125 C 2.488281 -2.9375 2.097656 -3.0625 1.796875 -3.1875 C 1.492188 -3.320312 1.234375 -3.515625 1.015625 -3.765625 C 0.796875 -4.023438 0.6875 -4.363281 0.6875 -4.78125 C 0.6875 -5.113281 0.785156 -5.414062 0.984375 -5.6875 C 1.179688 -5.96875 1.460938 -6.1875 1.828125 -6.34375 C 2.191406 -6.507812 2.601562 -6.59375 3.0625 -6.59375 C 3.78125 -6.59375 4.359375 -6.410156 4.796875 -6.046875 C 5.242188 -5.679688 5.484375 -5.1875 5.515625 -4.5625 L 4.4375 -4.5625 C 4.414062 -4.894531 4.28125 -5.164062 4.03125 -5.375 C 3.78125 -5.582031 3.445312 -5.6875 3.03125 -5.6875 C 2.644531 -5.6875 2.335938 -5.601562 2.109375 -5.4375 C 1.878906 -5.269531 1.765625 -5.050781 1.765625 -4.78125 C 1.765625 -4.570312 1.832031 -4.394531 1.96875 -4.25 C 2.101562 -4.113281 2.273438 -4.003906 2.484375 -3.921875 C 2.703125 -3.835938 2.992188 -3.742188 3.359375 -3.640625 C 3.828125 -3.515625 4.207031 -3.390625 4.5 -3.265625 C 4.789062 -3.148438 5.039062 -2.96875 5.25 -2.71875 C 5.457031 -2.476562 5.566406 -2.160156 5.578125 -1.765625 C 5.578125 -1.410156 5.476562 -1.085938 5.28125 -0.796875 C 5.082031 -0.515625 4.800781 -0.289062 4.4375 -0.125 C 4.082031 0.03125 3.671875 0.109375 3.203125 0.109375 Z M 3.203125 0.109375 "/></g></g></g><g fill="#000000" fill-opacity="1"><g transform="translate(83.42017, 12.478188)"><g><path d="M 1.46875 -7.546875 C 1.257812 -7.546875 1.082031 -7.613281 0.9375 -7.75 C 0.800781 -7.894531 0.734375 -8.070312 0.734375 -8.28125 C 0.734375 -8.488281 0.800781 -8.660156 0.9375 -8.796875 C 1.082031 -8.941406 1.257812 -9.015625 1.46875 -9.015625 C 1.664062 -9.015625 1.832031 -8.941406 1.96875 -8.796875 C 2.101562 -8.660156 2.171875 -8.488281 2.171875 -8.28125 C 2.171875 -8.070312 2.101562 -7.894531 1.96875 -7.75 C 1.832031 -7.613281 1.664062 -7.546875 1.46875 -7.546875 Z M 1.984375 -6.484375 L 1.984375 0 L 0.90625 0 L 0.90625 -6.484375 Z M 1.984375 -6.484375 "/></g></g></g><g fill="#000000" fill-opacity="1"><g transform="translate(86.334669, 12.478188)"><g><path d="M 3.75 0.109375 C 3.132812 0.109375 2.578125 -0.0234375 2.078125 -0.296875 C 1.585938 -0.578125 1.203125 -0.972656 0.921875 -1.484375 C 0.648438 -1.992188 0.515625 -2.582031 0.515625 -3.25 C 0.515625 -3.914062 0.65625 -4.503906 0.9375 -5.015625 C 1.226562 -5.523438 1.617188 -5.914062 2.109375 -6.1875 C 2.609375 -6.457031 3.171875 -6.59375 3.796875 -6.59375 C 4.410156 -6.59375 4.960938 -6.457031 5.453125 -6.1875 C 5.953125 -5.914062 6.347656 -5.523438 6.640625 -5.015625 C 6.929688 -4.515625 7.078125 -3.925781 7.078125 -3.25 C 7.078125 -2.582031 6.925781 -1.992188 6.625 -1.484375 C 6.332031 -0.972656 5.929688 -0.578125 5.421875 -0.296875 C 4.921875 -0.0234375 4.363281 0.109375 3.75 0.109375 Z M 3.75 -0.84375 C 4.132812 -0.84375 4.492188 -0.929688 4.828125 -1.109375 C 5.171875 -1.296875 5.445312 -1.566406 5.65625 -1.921875 C 5.863281 -2.285156 5.96875 -2.726562 5.96875 -3.25 C 5.96875 -3.769531 5.863281 -4.210938 5.65625 -4.578125 C 5.457031 -4.941406 5.191406 -5.210938 4.859375 -5.390625 C 4.523438 -5.566406 4.164062 -5.65625 3.78125 -5.65625 C 3.382812 -5.65625 3.019531 -5.566406 2.6875 -5.390625 C 2.363281 -5.210938 2.101562 -4.941406 1.90625 -4.578125 C 1.707031 -4.210938 1.609375 -3.769531 1.609375 -3.25 C 1.609375 -2.726562 1.703125 -2.285156 1.890625 -1.921875 C 2.085938 -1.554688 2.347656 -1.285156 2.671875 -1.109375 C 2.992188 -0.929688 3.351562 -0.84375 3.75 -0.84375 Z M 3.75 -0.84375 "/></g></g></g><g fill="#000000" fill-opacity="1"><g transform="translate(93.917098, 12.478188)"><g><path d="M 4.078125 -6.609375 C 4.867188 -6.609375 5.507812 -6.367188 6 -5.890625 C 6.488281 -5.410156 6.734375 -4.722656 6.734375 -3.828125 L 6.734375 0 L 5.65625 0 L 5.65625 -3.671875 C 5.65625 -4.316406 5.492188 -4.8125 5.171875 -5.15625 C 4.847656 -5.5 4.40625 -5.671875 3.84375 -5.671875 C 3.28125 -5.671875 2.828125 -5.492188 2.484375 -5.140625 C 2.148438 -4.785156 1.984375 -4.269531 1.984375 -3.59375 L 1.984375 0 L 0.90625 0 L 0.90625 -6.484375 L 1.984375 -6.484375 L 1.984375 -5.5625 C 2.203125 -5.894531 2.492188 -6.148438 2.859375 -6.328125 C 3.222656 -6.515625 3.628906 -6.609375 4.078125 -6.609375 Z M 4.078125 -6.609375 "/></g></g></g><g fill="#000000" fill-opacity="1"><g transform="translate(101.499526, 12.478188)"><g><path d="M 0.515625 -3.265625 C 0.515625 -3.929688 0.644531 -4.515625 0.90625 -5.015625 C 1.175781 -5.515625 1.546875 -5.898438 2.015625 -6.171875 C 2.484375 -6.453125 3.007812 -6.59375 3.59375 -6.59375 C 4.15625 -6.59375 4.644531 -6.46875 5.0625 -6.21875 C 5.488281 -5.976562 5.800781 -5.675781 6 -5.3125 L 6 -6.484375 L 7.09375 -6.484375 L 7.09375 0 L 6 0 L 6 -1.203125 C 5.789062 -0.828125 5.472656 -0.515625 5.046875 -0.265625 C 4.628906 -0.015625 4.140625 0.109375 3.578125 0.109375 C 3.003906 0.109375 2.484375 -0.03125 2.015625 -0.3125 C 1.546875 -0.601562 1.175781 -1.003906 0.90625 -1.515625 C 0.644531 -2.023438 0.515625 -2.609375 0.515625 -3.265625 Z M 6 -3.25 C 6 -3.738281 5.898438 -4.164062 5.703125 -4.53125 C 5.503906 -4.894531 5.238281 -5.171875 4.90625 -5.359375 C 4.570312 -5.554688 4.203125 -5.65625 3.796875 -5.65625 C 3.398438 -5.65625 3.035156 -5.5625 2.703125 -5.375 C 2.367188 -5.1875 2.101562 -4.910156 1.90625 -4.546875 C 1.707031 -4.179688 1.609375 -3.753906 1.609375 -3.265625 C 1.609375 -2.765625 1.707031 -2.332031 1.90625 -1.96875 C 2.101562 -1.601562 2.367188 -1.320312 2.703125 -1.125 C 3.035156 -0.9375 3.398438 -0.84375 3.796875 -0.84375 C 4.203125 -0.84375 4.570312 -0.9375 4.90625 -1.125 C 5.238281 -1.320312 5.503906 -1.601562 5.703125 -1.96875 C 5.898438 -2.332031 6 -2.757812 6 -3.25 Z M 6 -3.25 "/></g></g></g><g fill="#000000" fill-opacity="1"><g transform="translate(109.508462, 12.478188)"><g><path d="M 1.984375 -8.765625 L 1.984375 0 L 0.90625 0 L 0.90625 -8.765625 Z M 1.984375 -8.765625 "/></g></g></g><g fill="#000000" fill-opacity="1"><g transform="translate(112.422961, 12.478188)"><g><path d="M 1.46875 -7.546875 C 1.257812 -7.546875 1.082031 -7.613281 0.9375 -7.75 C 0.800781 -7.894531 0.734375 -8.070312 0.734375 -8.28125 C 0.734375 -8.488281 0.800781 -8.660156 0.9375 -8.796875 C 1.082031 -8.941406 1.257812 -9.015625 1.46875 -9.015625 C 1.664062 -9.015625 1.832031 -8.941406 1.96875 -8.796875 C 2.101562 -8.660156 2.171875 -8.488281 2.171875 -8.28125 C 2.171875 -8.070312 2.101562 -7.894531 1.96875 -7.75 C 1.832031 -7.613281 1.664062 -7.546875 1.46875 -7.546875 Z M 1.984375 -6.484375 L 1.984375 0 L 0.90625 0 L 0.90625 -6.484375 Z M 1.984375 -6.484375 "/></g></g></g><g fill="#000000" fill-opacity="1"><g transform="translate(115.33746, 12.478188)"><g><path d="M 1.71875 -0.890625 L 4.90625 -0.890625 L 4.90625 0 L 0.484375 0 L 0.484375 -0.890625 L 3.640625 -5.609375 L 0.515625 -5.609375 L 0.515625 -6.484375 L 4.875 -6.484375 L 4.875 -5.609375 Z M 1.71875 -0.890625 "/></g></g></g><g fill="#000000" fill-opacity="1"><g transform="translate(120.728097, 12.478188)"><g><path d="M 0.515625 -3.265625 C 0.515625 -3.929688 0.644531 -4.515625 0.90625 -5.015625 C 1.175781 -5.515625 1.546875 -5.898438 2.015625 -6.171875 C 2.484375 -6.453125 3.007812 -6.59375 3.59375 -6.59375 C 4.15625 -6.59375 4.644531 -6.46875 5.0625 -6.21875 C 5.488281 -5.976562 5.800781 -5.675781 6 -5.3125 L 6 -6.484375 L 7.09375 -6.484375 L 7.09375 0 L 6 0 L 6 -1.203125 C 5.789062 -0.828125 5.472656 -0.515625 5.046875 -0.265625 C 4.628906 -0.015625 4.140625 0.109375 3.578125 0.109375 C 3.003906 0.109375 2.484375 -0.03125 2.015625 -0.3125 C 1.546875 -0.601562 1.175781 -1.003906 0.90625 -1.515625 C 0.644531 -2.023438 0.515625 -2.609375 0.515625 -3.265625 Z M 6 -3.25 C 6 -3.738281 5.898438 -4.164062 5.703125 -4.53125 C 5.503906 -4.894531 5.238281 -5.171875 4.90625 -5.359375 C 4.570312 -5.554688 4.203125 -5.65625 3.796875 -5.65625 C 3.398438 -5.65625 3.035156 -5.5625 2.703125 -5.375 C 2.367188 -5.1875 2.101562 -4.910156 1.90625 -4.546875 C 1.707031 -4.179688 1.609375 -3.753906 1.609375 -3.265625 C 1.609375 -2.765625 1.707031 -2.332031 1.90625 -1.96875 C 2.101562 -1.601562 2.367188 -1.320312 2.703125 -1.125 C 3.035156 -0.9375 3.398438 -0.84375 3.796875 -0.84375 C 4.203125 -0.84375 4.570312 -0.9375 4.90625 -1.125 C 5.238281 -1.320312 5.503906 -1.601562 5.703125 -1.96875 C 5.898438 -2.332031 6 -2.757812 6 -3.25 Z M 6 -3.25 "/></g></g></g><g fill="#000000" fill-opacity="1"><g transform="translate(128.73704, 12.478188)"><g><path d="M 4.078125 -6.609375 C 4.867188 -6.609375 5.507812 -6.367188 6 -5.890625 C 6.488281 -5.410156 6.734375 -4.722656 6.734375 -3.828125 L 6.734375 0 L 5.65625 0 L 5.65625 -3.671875 C 5.65625 -4.316406 5.492188 -4.8125 5.171875 -5.15625 C 4.847656 -5.5 4.40625 -5.671875 3.84375 -5.671875 C 3.28125 -5.671875 2.828125 -5.492188 2.484375 -5.140625 C 2.148438 -4.785156 1.984375 -4.269531 1.984375 -3.59375 L 1.984375 0 L 0.90625 0 L 0.90625 -6.484375 L 1.984375 -6.484375 L 1.984375 -5.5625 C 2.203125 -5.894531 2.492188 -6.148438 2.859375 -6.328125 C 3.222656 -6.515625 3.628906 -6.609375 4.078125 -6.609375 Z M 4.078125 -6.609375 "/></g></g></g><g fill="#000000" fill-opacity="1"><g transform="translate(136.319469, 12.478188)"><g><path d="M 2.234375 -5.609375 L 2.234375 -1.78125 C 2.234375 -1.457031 2.296875 -1.226562 2.421875 -1.09375 C 2.554688 -0.96875 2.789062 -0.90625 3.125 -0.90625 L 3.921875 -0.90625 L 3.921875 0 L 2.953125 0 C 2.347656 0 1.894531 -0.132812 1.59375 -0.40625 C 1.300781 -0.6875 1.15625 -1.144531 1.15625 -1.78125 L 1.15625 -5.609375 L 0.3125 -5.609375 L 0.3125 -6.484375 L 1.15625 -6.484375 L 1.15625 -8.125 L 2.234375 -8.125 L 2.234375 -6.484375 L 3.921875 -6.484375 L 3.921875 -5.609375 Z M 2.234375 -5.609375 "/></g></g></g><g fill="#000000" fill-opacity="1"><g transform="translate(140.631981, 12.478188)"><g><path d="M 6.828125 -3.5 C 6.828125 -3.289062 6.816406 -3.070312 6.796875 -2.84375 L 1.609375 -2.84375 C 1.648438 -2.207031 1.867188 -1.707031 2.265625 -1.34375 C 2.660156 -0.988281 3.144531 -0.8125 3.71875 -0.8125 C 4.1875 -0.8125 4.578125 -0.914062 4.890625 -1.125 C 5.203125 -1.34375 5.421875 -1.632812 5.546875 -2 L 6.703125 -2 C 6.523438 -1.375 6.175781 -0.863281 5.65625 -0.46875 C 5.132812 -0.0820312 4.488281 0.109375 3.71875 0.109375 C 3.101562 0.109375 2.550781 -0.0234375 2.0625 -0.296875 C 1.582031 -0.578125 1.203125 -0.972656 0.921875 -1.484375 C 0.648438 -1.992188 0.515625 -2.582031 0.515625 -3.25 C 0.515625 -3.925781 0.644531 -4.515625 0.90625 -5.015625 C 1.175781 -5.523438 1.550781 -5.914062 2.03125 -6.1875 C 2.519531 -6.457031 3.082031 -6.59375 3.71875 -6.59375 C 4.332031 -6.59375 4.875 -6.457031 5.34375 -6.1875 C 5.820312 -5.925781 6.1875 -5.554688 6.4375 -5.078125 C 6.695312 -4.609375 6.828125 -4.082031 6.828125 -3.5 Z M 5.71875 -3.71875 C 5.71875 -4.125 5.625 -4.472656 5.4375 -4.765625 C 5.257812 -5.066406 5.015625 -5.296875 4.703125 -5.453125 C 4.390625 -5.609375 4.046875 -5.6875 3.671875 -5.6875 C 3.128906 -5.6875 2.664062 -5.507812 2.28125 -5.15625 C 1.894531 -4.8125 1.675781 -4.332031 1.625 -3.71875 Z M 5.71875 -3.71875 "/></g></g></g><g fill="#000000" fill-opacity="1"><g transform="translate(147.977452, 12.478188)"><g><path d="M 3.203125 0.109375 C 2.710938 0.109375 2.269531 0.0234375 1.875 -0.140625 C 1.476562 -0.316406 1.164062 -0.554688 0.9375 -0.859375 C 0.707031 -1.160156 0.582031 -1.507812 0.5625 -1.90625 L 1.671875 -1.90625 C 1.703125 -1.582031 1.851562 -1.316406 2.125 -1.109375 C 2.394531 -0.910156 2.753906 -0.8125 3.203125 -0.8125 C 3.609375 -0.8125 3.929688 -0.898438 4.171875 -1.078125 C 4.410156 -1.253906 4.53125 -1.484375 4.53125 -1.765625 C 4.53125 -2.046875 4.398438 -2.253906 4.140625 -2.390625 C 3.890625 -2.535156 3.5 -2.675781 2.96875 -2.8125 C 2.488281 -2.9375 2.097656 -3.0625 1.796875 -3.1875 C 1.492188 -3.320312 1.234375 -3.515625 1.015625 -3.765625 C 0.796875 -4.023438 0.6875 -4.363281 0.6875 -4.78125 C 0.6875 -5.113281 0.785156 -5.414062 0.984375 -5.6875 C 1.179688 -5.96875 1.460938 -6.1875 1.828125 -6.34375 C 2.191406 -6.507812 2.601562 -6.59375 3.0625 -6.59375 C 3.78125 -6.59375 4.359375 -6.410156 4.796875 -6.046875 C 5.242188 -5.679688 5.484375 -5.1875 5.515625 -4.5625 L 4.4375 -4.5625 C 4.414062 -4.894531 4.28125 -5.164062 4.03125 -5.375 C 3.78125 -5.582031 3.445312 -5.6875 3.03125 -5.6875 C 2.644531 -5.6875 2.335938 -5.601562 2.109375 -5.4375 C 1.878906 -5.269531 1.765625 -5.050781 1.765625 -4.78125 C 1.765625 -4.570312 1.832031 -4.394531 1.96875 -4.25 C 2.101562 -4.113281 2.273438 -4.003906 2.484375 -3.921875 C 2.703125 -3.835938 2.992188 -3.742188 3.359375 -3.640625 C 3.828125 -3.515625 4.207031 -3.390625 4.5 -3.265625 C 4.789062 -3.148438 5.039062 -2.96875 5.25 -2.71875 C 5.457031 -2.476562 5.566406 -2.160156 5.578125 -1.765625 C 5.578125 -1.410156 5.476562 -1.085938 5.28125 -0.796875 C 5.082031 -0.515625 4.800781 -0.289062 4.4375 -0.125 C 4.082031 0.03125 3.671875 0.109375 3.203125 0.109375 Z M 3.203125 0.109375 "/></g></g></g></g></g></g></g></svg>