<svg xmlns="http://www.w3.org/2000/svg" xmlns:xlink="http://www.w3.org/1999/xlink" width="559" zoomAndPan="magnify" viewBox="0 0 419.25 297.749993" height="397" preserveAspectRatio="xMidYMid meet" version="1.0"><defs><g/><clipPath id="8633a175d4"><path d="M 99.089844 29.851562 L 335.863281 29.851562 L 335.863281 266.621094 L 99.089844 266.621094 Z M 99.089844 29.851562 " clip-rule="nonzero"/></clipPath><clipPath id="4a87611148"><path d="M 217.476562 29.851562 C 152.09375 29.851562 99.089844 82.855469 99.089844 148.238281 C 99.089844 213.621094 152.09375 266.621094 217.476562 266.621094 C 282.859375 266.621094 335.863281 213.621094 335.863281 148.238281 C 335.863281 82.855469 282.859375 29.851562 217.476562 29.851562 Z M 217.476562 29.851562 " clip-rule="nonzero"/></clipPath><clipPath id="f09bf1e527"><path d="M 0.0898438 0.851562 L 236.863281 0.851562 L 236.863281 237.621094 L 0.0898438 237.621094 Z M 0.0898438 0.851562 " clip-rule="nonzero"/></clipPath><clipPath id="2fc648fb43"><path d="M 118.476562 0.851562 C 53.09375 0.851562 0.0898438 53.855469 0.0898438 119.238281 C 0.0898438 184.621094 53.09375 237.621094 118.476562 237.621094 C 183.859375 237.621094 236.863281 184.621094 236.863281 119.238281 C 236.863281 53.855469 183.859375 0.851562 118.476562 0.851562 Z M 118.476562 0.851562 " clip-rule="nonzero"/></clipPath><clipPath id="bc59c1fa62"><rect x="0" width="237" y="0" height="238"/></clipPath><clipPath id="40e062ec8e"><path d="M 100 136 L 236 136 L 236 265 L 100 265 Z M 100 136 " clip-rule="nonzero"/></clipPath><clipPath id="f6748d7c83"><path d="M 174.3125 327.238281 L 39.324219 202.742188 L 100.617188 136.289062 L 235.605469 260.785156 Z M 174.3125 327.238281 " clip-rule="nonzero"/></clipPath><clipPath id="c09f6ca9df"><path d="M 106.828125 264.996094 L 100.628906 136.300781 L 235.605469 260.785156 Z M 106.828125 264.996094 " clip-rule="nonzero"/></clipPath><clipPath id="4946feaadd"><path d="M 0.621094 0.21875 L 135.738281 0.21875 L 135.738281 129 L 0.621094 129 Z M 0.621094 0.21875 " clip-rule="nonzero"/></clipPath><clipPath id="2b20cfb81d"><path d="M 74.3125 191.238281 L -60.675781 66.742188 L 0.617188 0.289062 L 135.605469 124.785156 Z M 74.3125 191.238281 " clip-rule="nonzero"/></clipPath><clipPath id="bddd9c8b98"><path d="M 6.828125 128.996094 L 0.628906 0.300781 L 135.605469 124.785156 Z M 6.828125 128.996094 " clip-rule="nonzero"/></clipPath><clipPath id="a423a4e1b4"><rect x="0" width="136" y="0" height="129"/></clipPath><clipPath id="76d893b09c"><rect x="0" width="151" y="0" height="269"/></clipPath></defs><g clip-path="url(#8633a175d4)"><g clip-path="url(#4a87611148)"><g transform="matrix(1, 0, 0, 1, 99, 29)"><g clip-path="url(#bc59c1fa62)"><g clip-path="url(#f09bf1e527)"><g clip-path="url(#2fc648fb43)"><path fill="#65af44" d="M 0.0898438 0.851562 L 236.863281 0.851562 L 236.863281 237.621094 L 0.0898438 237.621094 Z M 0.0898438 0.851562 " fill-opacity="1" fill-rule="nonzero"/></g></g></g></g></g></g><path stroke-linecap="butt" transform="matrix(0, 0.748661, -0.748661, 0, 109.469546, 146.067785)" fill="none" stroke-linejoin="miter" d="M -0.00184169 6.997933 L 160.331349 6.997933 " stroke="#65af44" stroke-width="14" stroke-opacity="1" stroke-miterlimit="4"/><path stroke-linecap="butt" transform="matrix(-0.748661, 0, 0, -0.748661, 220.382047, 266.442129)" fill="none" stroke-linejoin="miter" d="M -0.00102193 6.997834 L 155.730201 6.997834 " stroke="#65af44" stroke-width="14" stroke-opacity="1" stroke-miterlimit="4"/><g clip-path="url(#40e062ec8e)"><g clip-path="url(#f6748d7c83)"><g clip-path="url(#c09f6ca9df)"><g transform="matrix(1, 0, 0, 1, 100, 136)"><g clip-path="url(#a423a4e1b4)"><g clip-path="url(#4946feaadd)"><g clip-path="url(#2b20cfb81d)"><g clip-path="url(#bddd9c8b98)"><path fill="#65af44" d="M 74.3125 191.238281 L -60.675781 66.742188 L 0.617188 0.289062 L 135.605469 124.785156 Z M 74.3125 191.238281 " fill-opacity="1" fill-rule="nonzero"/></g></g></g></g></g></g></g></g><g transform="matrix(1, 0, 0, 1, 143, 17)"><g clip-path="url(#76d893b09c)"><g fill="#ffffff" fill-opacity="1"><g transform="translate(0.163151, 200.935378)"><g><path d="M 111.125 -95.171875 C 107.664062 -101.835938 102.859375 -106.867188 96.703125 -110.265625 C 90.554688 -113.660156 83.445312 -115.359375 75.375 -115.359375 C 66.53125 -115.359375 58.644531 -113.367188 51.71875 -109.390625 C 44.800781 -105.421875 39.382812 -99.78125 35.46875 -92.46875 C 31.5625 -85.164062 29.609375 -76.707031 29.609375 -67.09375 C 29.609375 -57.488281 31.5625 -49 35.46875 -41.625 C 39.382812 -34.25 44.800781 -28.578125 51.71875 -24.609375 C 58.644531 -20.640625 66.53125 -18.65625 75.375 -18.65625 C 87.289062 -18.65625 96.960938 -21.984375 104.390625 -28.640625 C 111.828125 -35.304688 116.378906 -44.34375 118.046875 -55.75 L 67.875 -55.75 L 67.875 -73.25 L 141.5 -73.25 L 141.5 -56.140625 C 140.09375 -45.753906 136.410156 -36.203125 130.453125 -27.484375 C 124.492188 -18.773438 116.738281 -11.820312 107.1875 -6.625 C 97.632812 -1.4375 87.03125 1.15625 75.375 1.15625 C 62.8125 1.15625 51.335938 -1.757812 40.953125 -7.59375 C 30.566406 -13.425781 22.328125 -21.53125 16.234375 -31.90625 C 10.148438 -42.289062 7.109375 -54.019531 7.109375 -67.09375 C 7.109375 -80.175781 10.148438 -91.90625 16.234375 -102.28125 C 22.328125 -112.664062 30.597656 -120.773438 41.046875 -126.609375 C 51.492188 -132.441406 62.9375 -135.359375 75.375 -135.359375 C 89.59375 -135.359375 102.242188 -131.863281 113.328125 -124.875 C 124.421875 -117.882812 132.46875 -107.984375 137.46875 -95.171875 Z M 111.125 -95.171875 "/></g></g></g></g></g></svg>